<?xml version="1.0" standalone="no"?><!DOCTYPE svg PUBLIC "-//W3C//DTD SVG 1.1//EN" "http://www.w3.org/Graphics/SVG/1.1/DTD/svg11.dtd"><svg class="icon" width="32px" height="32.00px" viewBox="0 0 1024 1024" version="1.1" xmlns="http://www.w3.org/2000/svg"><path fill="#FF0000" d="M810.666667 298.666667a64 64 0 0 1 64 64v426.666666a64 64 0 0 1-64 64l-81.130667 0.021334a127.274667 127.274667 0 0 0 16.981333-57.706667L746.666667 789.333333V298.666667h64z m-170.666667-128a64 64 0 0 1 64 64v554.666666a64 64 0 0 1-64 64H213.333333a64 64 0 0 1-64-64V234.666667a64 64 0 0 1 64-64h426.666667z m-192 320h-170.666667v64h170.666667v-64z m128-128H277.333333v64h298.666667v-64z" /></svg>