<?xml version="1.0" standalone="no"?><!DOCTYPE svg PUBLIC "-//W3C//DTD SVG 1.1//EN" "http://www.w3.org/Graphics/SVG/1.1/DTD/svg11.dtd"><svg class="icon" width="32px" height="32.00px" viewBox="0 0 1024 1024" version="1.1" xmlns="http://www.w3.org/2000/svg"><path d="M102.4 102.4m307.2 0l204.8 0q307.2 0 307.2 307.2l0 204.8q0 307.2-307.2 307.2l-204.8 0q-307.2 0-307.2-307.2l0-204.8q0-307.2 307.2-307.2Z" fill="#2ECF7D" fill-opacity=".2" /><path d="M435.2 245.76a25.6 25.6 0 0 1 25.6 25.6V337.92h66.28352c1.14688-1.90464 2.56-3.69664 4.22912-5.3248l58.9312-56.90368a25.6 25.6 0 0 1 35.56352 36.83328L599.5008 337.92H655.36c62.208 0 112.64 50.432 112.64 112.64v184.32c0 62.208-50.432 112.64-112.64 112.64H368.64c-62.208 0-112.64-50.432-112.64-112.64V450.56c0-62.208 50.432-112.64 112.64-112.64h40.96v-66.56a25.6 25.6 0 0 1 25.6-25.6z" fill="#2ECF7D" /><path d="M561.6128 584.47872l-62.01344 31.00672A40.96 40.96 0 0 1 440.32 578.84672v-62.01344a40.96 40.96 0 0 1 59.27936-36.63872l62.01344 31.00672a40.96 40.96 0 0 1 0 73.27744z" fill="#FFFFFF" fill-opacity=".6" /></svg>