<?xml version="1.0" standalone="no"?><!DOCTYPE svg PUBLIC "-//W3C//DTD SVG 1.1//EN" "http://www.w3.org/Graphics/SVG/1.1/DTD/svg11.dtd"><svg t="1651399765651" class="icon" viewBox="0 0 1024 1024" version="1.1" xmlns="http://www.w3.org/2000/svg" p-id="2202" xmlns:xlink="http://www.w3.org/1999/xlink" width="64" height="64"><defs><style type="text/css">@font-face { font-family: feedback-iconfont; src: url("//at.alicdn.com/t/font_1031158_u69w8yhxdu.woff2?t=1630033759944") format("woff2"), url("//at.alicdn.com/t/font_1031158_u69w8yhxdu.woff?t=1630033759944") format("woff"), url("//at.alicdn.com/t/font_1031158_u69w8yhxdu.ttf?t=1630033759944") format("truetype"); }
</style></defs><path d="M876.544 547.84l3.072 0-731.136 0 0-434.176q0-43.008 21.504-66.048t65.536-23.04l558.08 0q46.08 0 65.024 26.112t17.92 67.072l0 430.08zM800.768 96.256l-579.584 0 0 323.584 579.584 1.024 0-324.608zM563.2 484.352q0-14.336-19.456-16.384l-62.464 0q-19.456 0-19.456 16.384 0 5.12 5.12 10.24t13.312 6.144l61.44-1.024q9.216 0 15.36-5.12t6.144-10.24zM859.136 606.208q11.264 0 15.36 7.168t12.288 20.48q4.096 7.168 15.36 25.6t24.064 39.424 24.064 39.424 15.36 24.576q8.192 13.312 13.824 25.088t-7.68 28.16q-26.624 31.744-46.08 38.912t-29.696 7.168l-38.912 0-89.088 0-121.856 0-138.24 0-137.216 0q-67.584 0-121.344-0.512t-87.552-0.512l-38.912 0q-8.192 0-16.896-4.096t-17.92-10.752-16.896-14.336-13.824-14.848q-7.168-9.216-9.216-16.384t-0.512-12.8 5.632-10.752 8.192-12.288q4.096-6.144 13.824-22.016t20.992-35.328l24.576-38.912q11.264-19.456 19.456-32.768t13.824-19.968 11.776-8.704 13.312-1.536 18.432 0.512l661.504 0zM909.312 795.648q0-7.168-6.144-11.776t-13.312-4.608l-747.52 0q-7.168 0-14.336 4.608t-7.168 11.776 6.144 12.288 13.312 5.12l748.544 0q7.168 0 13.824-5.12t6.656-12.288z" p-id="2203"></path></svg>