<?xml version="1.0" standalone="no"?><!DOCTYPE svg PUBLIC "-//W3C//DTD SVG 1.1//EN" "http://www.w3.org/Graphics/SVG/1.1/DTD/svg11.dtd"><svg class="icon" width="32px" height="32.00px" viewBox="0 0 1024 1024" version="1.1" xmlns="http://www.w3.org/2000/svg"><path d="M102.4 102.4m307.2 0l204.8 0q307.2 0 307.2 307.2l0 204.8q0 307.2-307.2 307.2l-204.8 0q-307.2 0-307.2-307.2l0-204.8q0-307.2 307.2-307.2Z" fill="#FCA77E" fill-opacity=".2" /><path d="M266.24 307.2m40.96 0l471.04 0q40.96 0 40.96 40.96l0 286.72q0 40.96-40.96 40.96l-471.04 0q-40.96 0-40.96-40.96l0-286.72q0-40.96 40.96-40.96Z" fill="#FCA77E" fill-opacity=".4" /><path d="M215.04 358.4m40.96 0l471.04 0q40.96 0 40.96 40.96l0 286.72q0 40.96-40.96 40.96l-471.04 0q-40.96 0-40.96-40.96l0-286.72q0-40.96 40.96-40.96Z" fill="#FCA77E" /><path d="M675.84 460.8a20.48 20.48 0 1 1 40.96 0v163.84a20.48 20.48 0 1 1-40.96 0V460.8z m-71.68 71.68a20.48 20.48 0 1 1 40.96 0v92.16a20.48 20.48 0 1 1-40.96 0v-92.16z m-71.68 51.2a20.48 20.48 0 1 1 40.96 0v40.96a20.48 20.48 0 1 1-40.96 0v-40.96z" fill="#FFFFFF" fill-opacity=".6" /><path d="M373.76 547.84m-117.76 0a117.76 117.76 0 1 0 235.52 0 117.76 117.76 0 1 0-235.52 0Z" fill="#FFFFFF" fill-opacity=".6" /><path d="M378.0608 471.04a10.24 10.24 0 0 1 10.24 10.24v1.69984c6.2976 6.22592 12.34944 10.06592 18.14528 11.53024 8.88832 2.23232 16.39424 12.1344 22.528 29.71648-9.75872-13.44512-18.24768-20.1728-25.45664-20.1728-4.5568 0-9.6256-1.26976-15.21664-3.81952V593.92c0 1.46432-0.3072 2.84672-0.86016 4.10624 0.69632 9.96352-9.04192 20.89984-23.53152 25.61024-16.13824 5.24288-32.0512 0.77824-35.54304-9.984-3.50208-10.752 6.7584-23.72608 22.8864-28.9792a42.46528 42.46528 0 0 1 16.56832-2.048V481.28a10.24 10.24 0 0 1 10.24-10.24z" fill="#FCA77E" /></svg>