<?xml version="1.0" standalone="no"?><!DOCTYPE svg PUBLIC "-//W3C//DTD SVG 1.1//EN" "http://www.w3.org/Graphics/SVG/1.1/DTD/svg11.dtd"><svg class="icon" width="32px" height="32.00px" viewBox="0 0 1024 1024" version="1.1" xmlns="http://www.w3.org/2000/svg"><path d="M102.4 102.4m307.2 0l204.8 0q307.2 0 307.2 307.2l0 204.8q0 307.2-307.2 307.2l-204.8 0q-307.2 0-307.2-307.2l0-204.8q0-307.2 307.2-307.2Z" fill="#91CF2E" opacity=".2" /><path d="M256 337.92m112.64 0l286.72 0q112.64 0 112.64 112.64l0 184.32q0 112.64-112.64 112.64l-286.72 0q-112.64 0-112.64-112.64l0-184.32q0-112.64 112.64-112.64Z" fill="#91CF2E" /><path d="M530.977481 231.691364m13.184974 21.943483l0 0q13.184975 21.943483-8.758508 35.128458l-166.77047 100.205808q-21.943483 13.184975-35.128458-8.758508l0 0q-13.184975-21.943483 8.758509-35.128458l166.77047-100.205808q21.943483-13.184975 35.128457 8.758508Z" fill="#91CF2E" /><path d="M665.6 604.16a30.72 30.72 0 0 1 0 61.44H522.24a30.72 30.72 0 0 1 0-61.44h143.36zM389.12 481.28a71.68 71.68 0 1 1 0 143.36 71.68 71.68 0 0 1 0-143.36z m276.48 40.96a30.72 30.72 0 0 1 0 61.44H522.24a30.72 30.72 0 0 1 0-61.44h143.36z m0-81.92a30.72 30.72 0 0 1 0 61.44H522.24a30.72 30.72 0 0 1 0-61.44h143.36z" fill="#FFFFFF" fill-opacity=".6" /></svg>